<svg width="38" height="38" viewBox="0 0 38 38" fill="none" xmlns="http://www.w3.org/2000/svg">
<path d="M13.6959 6.98735C14.7922 3.77902 19.2252 3.68185 20.525 6.69585L20.635 6.98918L22.1145 11.3158C22.4536 12.3081 23.0015 13.2161 23.7213 13.9786C24.4411 14.7411 25.3161 15.3404 26.2872 15.736L26.685 15.8845L31.0117 17.3622C34.22 18.4585 34.3172 22.8915 31.305 24.1913L31.0117 24.3013L26.685 25.7808C25.6924 26.1197 24.7841 26.6675 24.0212 27.3873C23.2584 28.1071 22.6588 28.9822 22.263 29.9535L22.1145 30.3495L20.6369 34.678C19.5405 37.8863 15.1075 37.9835 13.8095 34.9713L13.6959 34.678L12.2182 30.3513C11.8794 29.3587 11.3316 28.4504 10.6117 27.6875C9.89191 26.9247 9.01682 26.3252 8.04554 25.9293L7.64954 25.7808L3.32287 24.3032C0.112703 23.2068 0.0155364 18.7738 3.02954 17.4758L3.32287 17.3622L7.64954 15.8845C8.6418 15.5455 9.54981 14.9975 10.3123 14.2777C11.0748 13.5579 11.6741 12.6829 12.0697 11.7118L12.2182 11.3158L13.6959 6.98735ZM31.833 0.666016C32.176 0.666015 32.5121 0.762226 32.8032 0.943713C33.0942 1.1252 33.3285 1.38469 33.4794 1.69268L33.5674 1.90718L34.209 3.78818L36.0919 4.42985C36.4356 4.54662 36.7369 4.76281 36.9576 5.05101C37.1783 5.33921 37.3085 5.68645 37.3317 6.04872C37.3549 6.41099 37.27 6.77199 37.0878 7.08596C36.9056 7.39993 36.6342 7.65274 36.3082 7.81235L36.0919 7.90035L34.2109 8.54202L33.5692 10.4248C33.4522 10.7685 33.2359 11.0696 32.9476 11.2902C32.6593 11.5107 32.312 11.6407 31.9497 11.6637C31.5875 11.6866 31.2265 11.6016 30.9127 11.4192C30.5988 11.2369 30.3462 10.9654 30.1867 10.6393L30.0987 10.4248L29.457 8.54385L27.5742 7.90218C27.2305 7.78541 26.9292 7.56922 26.7085 7.28102C26.4877 6.99282 26.3575 6.64558 26.3344 6.28331C26.3112 5.92104 26.3961 5.56004 26.5783 5.24607C26.7605 4.9321 27.0318 4.67929 27.3579 4.51968L27.5742 4.43168L29.4552 3.79002L30.0969 1.90718C30.2205 1.54496 30.4544 1.23051 30.7657 1.00793C31.0771 0.785345 31.4503 0.665786 31.833 0.666016Z" fill="#1779FA"/>
</svg>
