<svg width="32" height="32" viewBox="0 0 32 32" fill="none" xmlns="http://www.w3.org/2000/svg">
<path d="M17.2723 1.05947C17.0023 1.29947 14.9023 5.46697 14.9023 5.46697L13.3398 11.7695L19.4198 11.212C19.4198 11.212 24.4773 1.80697 24.5798 1.58947C24.7623 1.19447 24.8598 1.03197 24.1623 1.03197C23.4648 1.02947 17.5248 0.834467 17.2723 1.05947Z" fill="#176CC7"/>
<path d="M20.4197 10.8227C20.1172 10.6602 11.2072 10.5202 10.9972 10.8227C10.8072 11.0977 10.9147 12.5402 10.9872 12.7127C11.1172 13.0127 13.9947 14.3202 13.9947 14.3202L13.9397 14.9152C13.9397 14.9152 14.1747 14.9752 15.8472 14.9752C17.5197 14.9752 17.8497 14.8902 17.8497 14.8902L17.8547 14.3527C17.8547 14.3527 20.4447 13.0927 20.5747 12.9177C20.6847 12.7727 20.7222 10.9852 20.4197 10.8227ZM17.7672 13.1027C17.7672 13.1027 17.8497 12.7352 17.6772 12.6502C17.5047 12.5627 14.5447 12.6027 14.3097 12.6152C14.0747 12.6277 14.0747 13.0477 14.0747 13.0477L12.2097 12.0877L12.1747 11.7302L19.2497 11.7802L19.2247 12.1177L17.7672 13.1027Z" fill="#F79429"/>
<path d="M14.8153 12.9727C14.5803 12.9727 14.4453 13.2177 14.4453 13.6402C14.4453 14.0352 14.5803 14.3677 14.8778 14.3427C15.1228 14.3227 15.2078 13.9477 15.1853 13.6152C15.1628 13.2177 15.1128 12.9727 14.8153 12.9727Z" fill="#FDFFFF"/>
<path d="M7.32715 23.0234C7.32715 29.0134 12.7546 31.5059 16.3571 31.3984C20.5546 31.2734 25.0696 28.0884 24.6971 22.3734C24.3471 17.0109 19.8321 14.5509 15.8871 14.5784C11.3021 14.6134 7.32715 17.7909 7.32715 23.0234Z" fill="#F79429"/>
<path d="M16.1677 30.4927C16.1052 30.4927 16.0402 30.4927 15.9777 30.4902C14.1027 30.4277 12.2503 29.6377 10.8953 28.3252C9.44525 26.9202 8.65025 25.0202 8.66025 22.9777C8.68275 17.9902 13.0427 15.6777 16.0002 15.6777H16.0252C20.0327 15.6952 23.3228 18.8102 23.4153 23.0327C23.4553 24.9127 22.8552 26.7827 21.3452 28.2677C19.9352 29.6477 17.8952 30.4927 16.1677 30.4927ZM15.9952 16.5077C13.3427 16.5077 9.42025 18.6777 9.41025 22.9777C9.40275 26.1927 11.8928 29.4977 16.0403 29.6377C17.6203 29.6877 19.4028 29.1027 20.7153 27.8127C22.0802 26.4702 22.6928 24.7202 22.6653 23.0452C22.6053 19.4127 19.6353 16.5227 16.0303 16.5077C16.0227 16.5027 16.0027 16.5077 15.9952 16.5077Z" fill="#D25116"/>
<path d="M14.5225 15.3668C14.35 15.1293 12.5825 15.1968 10.68 16.8343C8.78996 18.4618 8.50746 20.2618 8.84746 20.3568C9.23496 20.4643 9.70746 18.7243 11.34 17.2618C12.84 15.9243 14.865 15.8393 14.5225 15.3668ZM22.12 21.9093C21.5175 21.9943 22.1425 23.7993 20.745 25.8193C19.5325 27.5718 18.1575 28.2068 18.3175 28.5918C18.5325 29.1068 20.735 27.8243 21.755 25.7343C22.6775 23.8418 22.5675 21.8443 22.12 21.9093Z" fill="#FEFFFA"/>
<path d="M6.37706 0.930104C6.21956 1.0751 12.2421 11.8001 12.2421 11.8001C12.2421 11.8001 13.2521 11.9301 15.5071 11.9501C17.7621 11.9701 18.8796 11.8201 18.8796 11.8201C18.8796 11.8201 14.1971 1.0376 13.9171 0.930104C13.7796 0.875104 11.9246 0.855104 10.1121 0.835104C8.29706 0.812604 6.52706 0.790104 6.37706 0.930104Z" fill="#2E9DF4"/>
<path d="M18.7376 20.9273C18.4476 18.4148 15.5226 18.2048 14.3101 19.1698C13.1301 20.1098 13.2426 21.4198 14.0701 21.5723C14.7226 21.6923 14.8926 21.1748 15.0826 20.9373C15.5126 20.4048 16.1976 20.3548 16.6451 20.7823C17.1526 21.2698 16.8401 22.4348 16.0776 22.4823C15.5101 22.5173 15.2226 22.4873 15.1501 22.5848C15.0476 22.7223 15.0626 23.8048 15.1676 23.9248C15.2876 24.0623 15.7676 23.9773 16.1801 23.9923C16.7476 24.0148 17.3501 24.8548 16.9526 25.4848C16.5401 26.1373 15.4426 25.8448 15.0476 25.4498C14.5251 24.9273 14.0026 25.2273 13.8276 25.4323C13.5526 25.7573 13.2601 26.4973 14.2751 27.2173C15.2876 27.9373 18.3601 28.0748 18.9801 25.8448C19.5201 23.8973 18.2601 23.0973 18.2601 23.0973C18.2601 23.0973 18.9026 22.3598 18.7376 20.9273Z" fill="#D25116"/>
</svg>
