<svg width="32" height="32" viewBox="0 0 32 32" fill="none" xmlns="http://www.w3.org/2000/svg">
<path d="M17.2723 1.05947C17.0023 1.29947 14.9023 5.46697 14.9023 5.46697L13.3398 11.7695L19.4198 11.212C19.4198 11.212 24.4773 1.80697 24.5798 1.58947C24.7623 1.19447 24.8598 1.03197 24.1623 1.03197C23.4648 1.02947 17.5248 0.834467 17.2723 1.05947Z" fill="#176CC7"/>
<path d="M20.4195 10.8227C20.117 10.6602 11.207 10.5202 10.997 10.8227C10.807 11.0977 10.8345 12.3552 10.927 12.5177C11.0195 12.6802 14.0145 14.0727 14.0145 14.0727L14.012 14.5802C14.012 14.5802 14.177 14.9777 15.847 14.9777C17.517 14.9777 17.6895 14.6402 17.6895 14.6402L17.7045 14.1277C17.7045 14.1277 20.327 12.8177 20.4645 12.7027C20.6045 12.5852 20.722 10.9852 20.4195 10.8227ZM17.6745 12.9052C17.6745 12.9052 17.667 12.5552 17.4945 12.4677C17.322 12.3802 14.5445 12.3952 14.3095 12.4077C14.0745 12.4202 14.0745 12.8402 14.0745 12.8402L12.1745 11.9152V11.7302L19.2495 11.7802L19.262 11.9902L17.6745 12.9052Z" fill="#FCC417"/>
<path d="M14.8153 12.793C14.5803 12.793 14.4453 13.038 14.4453 13.4605C14.4453 13.8555 14.5803 14.188 14.8778 14.163C15.1228 14.143 15.2078 13.768 15.1853 13.4355C15.1628 13.0405 15.1128 12.793 14.8153 12.793Z" fill="#FDFFFF"/>
<path d="M7.24512 22.6805C7.24512 28.6705 12.6601 31.338 16.2601 31.2105C20.2301 31.068 24.9851 27.973 24.6976 22.258C24.4251 16.843 19.8701 14.2755 15.9251 14.303C11.3401 14.3355 7.24512 17.448 7.24512 22.6805Z" fill="#FCC417"/>
<path d="M16.1326 30.1666C16.0701 30.1666 16.0051 30.1666 15.9426 30.1641C14.0676 30.1016 12.2151 29.3116 10.8601 27.9991C9.41009 26.5941 8.61509 24.6941 8.62509 22.6516C8.64759 17.6641 13.0076 15.3516 15.9651 15.3516H15.9901C19.9976 15.3691 23.2876 18.4841 23.3801 22.7066C23.4201 24.5866 22.6501 26.5591 21.1401 28.0441C19.7301 29.4266 17.8601 30.1666 16.1326 30.1666ZM15.9601 16.1816C13.3076 16.1816 9.38509 18.3516 9.37509 22.6516C9.36759 25.8666 11.8576 29.1716 16.0051 29.3116C17.5851 29.3616 19.2126 28.7566 20.5276 27.4641C21.8926 26.1216 22.6601 24.3916 22.6326 22.7166C22.5726 19.0841 19.6026 16.1941 15.9976 16.1791C15.9876 16.1791 15.9676 16.1816 15.9601 16.1816Z" fill="#FA912C"/>
<path d="M14.4547 15.1529C14.2822 14.9154 12.3272 14.9604 10.4797 16.7654C8.69719 18.5079 8.50469 20.1504 8.84719 20.2454C9.23469 20.3529 9.70719 18.6129 11.3397 17.1504C12.8397 15.8104 14.7997 15.6254 14.4547 15.1529ZM22.0172 21.6204C21.4147 21.7054 22.0397 23.5104 20.6422 25.5304C19.4297 27.2829 18.0547 27.9179 18.2147 28.3029C18.4297 28.8179 20.6322 27.5354 21.6522 25.4454C22.5772 23.5529 22.4672 21.5554 22.0172 21.6204Z" fill="#FEFFFA"/>
<path d="M13.9625 19.2556C13.8325 19.4481 13.95 21.1356 14.0275 21.2106C14.1775 21.3606 15.3175 20.8231 15.3175 20.8231L15.275 25.3356C15.275 25.3356 14.4375 25.3256 14.35 25.3581C14.1775 25.4231 14.2 27.1631 14.3275 27.2481C14.455 27.3331 17.8725 27.3781 18.0025 27.2056C18.1325 27.0331 18.1 25.5106 18.04 25.4406C17.9325 25.3106 17.115 25.3631 17.115 25.3631C17.115 25.3631 17.185 18.7181 17.1625 18.5056C17.14 18.2931 16.905 18.1606 16.625 18.2256C16.345 18.2906 14.045 19.1306 13.9625 19.2556Z" fill="#FA912C"/>
<path d="M6.37706 0.930104C6.21956 1.0751 12.2421 11.8001 12.2421 11.8001C12.2421 11.8001 13.2521 11.9301 15.5071 11.9501C17.7621 11.9701 18.8796 11.8201 18.8796 11.8201C18.8796 11.8201 14.1971 1.0376 13.9171 0.930104C13.7796 0.875104 11.9246 0.855104 10.1121 0.835104C8.29706 0.812604 6.52706 0.790104 6.37706 0.930104Z" fill="#2E9DF4"/>
</svg>
