<svg width="32" height="32" viewBox="0 0 32 32" fill="none" xmlns="http://www.w3.org/2000/svg">
<path d="M17.2723 1.05947C17.0023 1.29947 14.9023 5.46697 14.9023 5.46697L13.3398 11.7695L19.4198 11.212C19.4198 11.212 24.4773 1.80697 24.5798 1.58947C24.7623 1.19447 24.8598 1.03197 24.1623 1.03197C23.4648 1.02947 17.5248 0.834467 17.2723 1.05947Z" fill="#176CC7"/>
<path d="M20.4197 10.8227C20.1172 10.6602 11.2072 10.5202 10.9972 10.8227C10.8072 11.0977 10.9147 12.5402 10.9872 12.7127C11.1172 13.0127 13.9947 14.3202 13.9947 14.3202L13.9397 14.9152C13.9397 14.9152 14.1747 14.9752 15.8472 14.9752C17.5197 14.9752 17.8497 14.8902 17.8497 14.8902L17.8547 14.3527C17.8547 14.3527 20.4447 13.0927 20.5747 12.9177C20.6847 12.7727 20.7222 10.9852 20.4197 10.8227ZM17.7672 13.1027C17.7672 13.1027 17.8497 12.7352 17.6772 12.6502C17.5047 12.5627 14.5447 12.6027 14.3097 12.6152C14.0747 12.6277 14.0747 13.0477 14.0747 13.0477L12.1747 11.9152V11.7302L19.2497 11.7802L19.2622 11.9902L17.7672 13.1027Z" fill="#CECDD2"/>
<path d="M14.8153 12.793C14.5803 12.793 14.4453 13.038 14.4453 13.4605C14.4453 13.8555 14.5803 14.188 14.8778 14.163C15.1228 14.143 15.2078 13.768 15.1853 13.4355C15.1628 13.0405 15.1128 12.793 14.8153 12.793Z" fill="#FDFFFF"/>
<path d="M7.24219 22.9734C7.24219 28.9634 12.7547 31.5059 16.3572 31.3984C20.5547 31.2734 24.9847 28.0884 24.6972 22.3734C24.4247 16.9584 19.8322 14.5509 15.8872 14.5784C11.3022 14.6134 7.24219 17.7409 7.24219 22.9734Z" fill="#CECDD2"/>
<path d="M16.1326 30.2818C16.0701 30.2818 16.0051 30.2818 15.9426 30.2793C14.0676 30.2168 12.2151 29.4268 10.8601 28.1143C9.41009 26.7093 8.61509 24.8093 8.62509 22.7668C8.64759 17.7793 13.0076 15.4668 15.9651 15.4668H15.9901C19.9976 15.4843 23.2876 18.5993 23.3801 22.8218C23.4201 24.7018 22.6501 26.6743 21.1401 28.1593C19.7301 29.5418 17.8601 30.2818 16.1326 30.2818ZM15.9601 16.2968C13.3076 16.2968 9.38509 18.4668 9.37509 22.7668C9.36759 25.9818 11.8576 29.2868 16.0051 29.4268C17.5851 29.4768 19.2126 28.8718 20.5276 27.5793C21.8926 26.2368 22.6601 24.5068 22.6326 22.8318C22.5676 19.1993 19.5976 16.3093 15.9926 16.2918C15.9876 16.2918 15.9676 16.2968 15.9601 16.2968Z" fill="#9B9B9D"/>
<path d="M14.5225 15.3668C14.35 15.1293 12.5825 15.1968 10.68 16.8343C8.78996 18.4618 8.50746 20.2618 8.84746 20.3568C9.23496 20.4643 9.70746 18.7243 11.34 17.2618C12.84 15.9243 14.865 15.8393 14.5225 15.3668ZM21.97 21.9293C21.3675 22.0143 21.9925 23.8193 20.595 25.8393C19.3825 27.5918 18.0075 28.2268 18.1675 28.6118C18.3825 29.1268 20.585 27.8443 21.605 25.7543C22.5275 23.8643 22.4175 21.8668 21.97 21.9293Z" fill="#FEFFFA"/>
<path d="M6.37706 0.930104C6.21956 1.0751 12.2421 11.8001 12.2421 11.8001C12.2421 11.8001 13.2521 11.9301 15.5071 11.9501C17.7621 11.9701 18.8796 11.8201 18.8796 11.8201C18.8796 11.8201 14.1971 1.0376 13.9171 0.930104C13.7796 0.875104 11.9246 0.855104 10.1121 0.835104C8.29706 0.812604 6.52706 0.790104 6.37706 0.930104Z" fill="#2E9DF4"/>
<path d="M14.2125 21.5885C14.4725 21.591 14.705 21.2385 14.92 21.0235C15.3775 20.5635 15.8575 20.1985 16.405 20.6935C17.75 21.916 15.05 23.156 14.025 24.851C13.26 26.116 13.105 27.0885 13.3175 27.3485C13.53 27.6085 18.7025 27.596 18.7725 27.466C18.8425 27.336 18.915 25.6035 18.795 25.521C18.675 25.4385 16.1325 25.486 16.1325 25.486C16.1325 25.486 16.345 24.991 17.2175 24.236C18.175 23.4085 18.9425 22.271 18.7375 20.926C18.3125 18.146 15.5125 18.0435 14.3 19.011C13.1175 19.9535 13.3725 21.5785 14.2125 21.5885Z" fill="#9B9B9D"/>
</svg>
