<svg width="32" height="28" viewBox="0 0 32 28" fill="none" xmlns="http://www.w3.org/2000/svg">
<path d="M4.49992 15.7699V19.9849C4.49992 21.0799 5.09992 22.0999 6.05992 22.6249L13.5599 26.7199C14.4599 27.2149 15.5399 27.2149 16.4399 26.7199L23.9399 22.6249C24.8999 22.0999 25.4999 21.0799 25.4999 19.9849V15.7699L16.4399 20.7199C15.5399 21.2149 14.4599 21.2149 13.5599 20.7199L4.49992 15.7699ZM13.5599 1.27992L0.914922 8.17992C-0.120078 8.74992 -0.120078 10.2499 0.914922 10.8199L13.5599 17.7199C14.4599 18.2149 15.5399 18.2149 16.4399 17.7199L28.4999 11.1349V19.9999C28.4999 20.8249 29.1749 21.4999 29.9999 21.4999C30.8249 21.4999 31.4999 20.8249 31.4999 19.9999V10.3849C31.4999 9.82992 31.1999 9.33492 30.7199 9.06492L16.4399 1.27992C15.9967 1.04356 15.5022 0.919922 14.9999 0.919922C14.4977 0.919922 14.0031 1.04356 13.5599 1.27992Z" fill="#1779FA"/>
</svg>
