<svg width="14" height="14" viewBox="0 0 14 14" fill="none" xmlns="http://www.w3.org/2000/svg">
<path fill-rule="evenodd" clip-rule="evenodd" d="M6.56917 12.9109C6.56917 12.9109 2.33301 9.34318 2.33301 5.83268C2.33301 4.59501 2.82467 3.40802 3.69984 2.53285C4.57501 1.65768 5.762 1.16602 6.99967 1.16602C8.23735 1.16602 9.42434 1.65768 10.2995 2.53285C11.1747 3.40802 11.6663 4.59501 11.6663 5.83268C11.6663 9.34318 7.43017 12.9109 7.43017 12.9109C7.19451 13.1279 6.80659 13.1255 6.56917 12.9109ZM6.99967 7.87435C7.26779 7.87435 7.53328 7.82154 7.78099 7.71894C8.02869 7.61633 8.25376 7.46595 8.44335 7.27636C8.63294 7.08677 8.78333 6.8617 8.88593 6.61399C8.98853 6.36629 9.04134 6.1008 9.04134 5.83268C9.04134 5.56457 8.98853 5.29908 8.88593 5.05137C8.78333 4.80366 8.63294 4.57859 8.44335 4.38901C8.25376 4.19942 8.02869 4.04903 7.78099 3.94643C7.53328 3.84383 7.26779 3.79102 6.99967 3.79102C6.45819 3.79102 5.93888 4.00612 5.556 4.38901C5.17311 4.77189 4.95801 5.2912 4.95801 5.83268C4.95801 6.37417 5.17311 6.89347 5.556 7.27636C5.93888 7.65925 6.45819 7.87435 6.99967 7.87435Z" fill="#4B5563"/>
</svg>
