<svg width="20" height="21" viewBox="0 0 20 21" fill="none" xmlns="http://www.w3.org/2000/svg">
<path fill-rule="evenodd" clip-rule="evenodd" d="M9.38467 18.9444C9.38467 18.9444 3.33301 13.8477 3.33301 8.83268C3.33301 7.06457 4.03539 5.36888 5.28563 4.11864C6.53587 2.86839 8.23156 2.16602 9.99967 2.16602C11.7678 2.16602 13.4635 2.86839 14.7137 4.11864C15.964 5.36888 16.6663 7.06457 16.6663 8.83268C16.6663 13.8477 10.6147 18.9444 10.6147 18.9444C10.278 19.2544 9.72384 19.251 9.38467 18.9444ZM9.99967 11.7493C10.3827 11.7493 10.762 11.6739 11.1158 11.5273C11.4697 11.3808 11.7912 11.1659 12.0621 10.8951C12.3329 10.6242 12.5477 10.3027 12.6943 9.94884C12.8409 9.59498 12.9163 9.2157 12.9163 8.83268C12.9163 8.44966 12.8409 8.07039 12.6943 7.71652C12.5477 7.36266 12.3329 7.04113 12.0621 6.77029C11.7912 6.49945 11.4697 6.28461 11.1158 6.13803C10.762 5.99146 10.3827 5.91602 9.99967 5.91602C9.22613 5.91602 8.48426 6.22331 7.93728 6.77029C7.3903 7.31727 7.08301 8.05913 7.08301 8.83268C7.08301 9.60623 7.3903 10.3481 7.93728 10.8951C8.48426 11.4421 9.22613 11.7493 9.99967 11.7493Z" fill="#9CA3AF"/>
</svg>
