<svg width="40" height="40" viewBox="0 0 40 40" fill="none" xmlns="http://www.w3.org/2000/svg">
<circle cx="20" cy="20" r="20" fill="#F3F4F6"/>
<path fill-rule="evenodd" clip-rule="evenodd" d="M15.3333 14.1667C15.3333 12.929 15.825 11.742 16.7002 10.8668C17.5753 9.99167 18.7623 9.5 20 9.5C21.2377 9.5 22.4247 9.99167 23.2998 10.8668C24.175 11.742 24.6667 12.929 24.6667 14.1667C24.6667 15.4043 24.175 16.5913 23.2998 17.4665C22.4247 18.3417 21.2377 18.8333 20 18.8333C18.7623 18.8333 17.5753 18.3417 16.7002 17.4665C15.825 16.5913 15.3333 15.4043 15.3333 14.1667ZM15.3333 21.1667C13.7862 21.1667 12.3025 21.7812 11.2085 22.8752C10.1146 23.9692 9.5 25.4529 9.5 27C9.5 27.9283 9.86875 28.8185 10.5251 29.4749C11.1815 30.1313 12.0717 30.5 13 30.5H27C27.9283 30.5 28.8185 30.1313 29.4749 29.4749C30.1313 28.8185 30.5 27.9283 30.5 27C30.5 25.4529 29.8854 23.9692 28.7915 22.8752C27.6975 21.7812 26.2138 21.1667 24.6667 21.1667H15.3333Z" fill="#4B5563"/>
</svg>
