<svg width="36" height="36" viewBox="0 0 36 36" fill="none" xmlns="http://www.w3.org/2000/svg">
<path d="M24.21 3.37501C22.8774 3.37448 21.5638 3.69044 20.3772 4.29687C19.1906 4.9033 18.165 5.78287 17.3848 6.86317C16.6046 7.94347 16.0921 9.19362 15.8895 10.5107C15.6869 11.8278 15.8 13.1742 16.2195 14.439L4.155 26.5065C3.65634 27.0055 3.37622 27.6821 3.37622 28.3875C3.37622 29.0929 3.65634 29.7695 4.155 30.2685L5.733 31.8465C5.98 32.0938 6.27333 32.29 6.59622 32.4239C6.9191 32.5578 7.26521 32.6267 7.61475 32.6267C7.96428 32.6267 8.31039 32.5578 8.63328 32.4239C8.95617 32.29 9.2495 32.0938 9.4965 31.8465L21.5625 19.779C23.0028 20.2574 24.5457 20.3373 26.0278 20.0103C27.5099 19.6833 28.8759 18.9616 29.9812 17.9216C31.0866 16.8816 31.8901 15.562 32.3066 14.1026C32.7232 12.6432 32.7373 11.0983 32.3475 9.63151C31.9485 8.12551 30.1845 7.97551 29.2995 8.86051L26.715 11.4435C26.5744 11.5895 26.406 11.7061 26.2198 11.7863C26.0336 11.8665 25.8333 11.9088 25.6305 11.9108C25.4278 11.9127 25.2267 11.8741 25.039 11.7974C24.8514 11.7207 24.6809 11.6074 24.5375 11.464C24.3941 11.3207 24.2808 11.1501 24.2041 10.9625C24.1274 10.7748 24.0888 10.5737 24.0907 10.371C24.0927 10.1682 24.135 9.96789 24.2152 9.78169C24.2954 9.59549 24.412 9.42715 24.558 9.28651L27.141 6.70201C28.026 5.81701 27.876 4.05301 26.3685 3.65401C25.6646 3.46792 24.9396 3.37414 24.2115 3.37501" fill="#1779FA"/>
</svg>
