<svg width="36" height="36" viewBox="0 0 36 36" fill="none" xmlns="http://www.w3.org/2000/svg">
<path d="M14.4151 8.7896C12.3676 9.6071 11.3446 10.0166 11.2201 10.8641C11.0956 11.7116 11.9551 12.4376 13.6726 13.8881L14.1166 14.2631C14.6041 14.6756 14.8471 14.8826 14.9866 15.1631C15.1276 15.4436 15.1471 15.7676 15.1876 16.4156L15.2236 17.0051C15.3631 19.2851 15.4336 20.4251 16.1746 20.8181C16.9156 21.2111 17.8366 20.5976 19.6786 19.3691L20.1556 19.0511C20.6791 18.7016 20.9401 18.5261 21.2401 18.4796C21.5401 18.4331 21.8431 18.5156 22.4491 18.6836L23.0011 18.8366C25.1341 19.4276 26.2006 19.7231 26.7811 19.1186C27.3631 18.5141 27.0736 17.4086 26.4961 15.1991M27.0001 11.7521C28.1791 9.8381 28.7671 8.8811 28.3861 8.1131C28.0051 7.3481 26.9041 7.2776 24.7051 7.1411L24.1351 7.1051C23.5111 7.0661 23.1991 7.0466 22.9276 6.9026C22.6561 6.7586 22.4566 6.5066 22.0576 6.0026L21.6931 5.5436C20.2891 3.7691 19.5856 2.8811 18.7681 3.0116C17.9521 3.1436 17.5606 4.2056 16.7791 6.3311" stroke="#1779FA" stroke-width="2.25" stroke-linecap="round"/>
<path d="M11.169 10.8613C7.66651 13.4233 4.98601 18.3238 6.37201 27.0013C7.60051 23.3833 11.301 20.4868 15.4365 19.0918" stroke="#1779FA" stroke-width="2.25" stroke-linecap="round" stroke-linejoin="round"/>
<path d="M15.42 24C15.42 24 16.371 26.085 17.541 26.805C18.711 27.5205 21 27.42 21 27.42C21 27.42 18.915 28.3695 18.195 29.5395C17.478 30.7095 17.58 33 17.58 33C17.58 33 16.629 30.915 15.459 30.195C14.2905 29.481 12 29.58 12 29.58C12 29.58 14.085 28.6305 14.805 27.4605C15.522 26.2905 15.42 24 15.42 24ZM27.72 22.5C27.72 22.5 27.087 23.8905 26.307 24.369C25.527 24.8475 24 24.78 24 24.78C24 24.78 25.3905 25.413 25.869 26.193C26.3475 26.973 26.28 28.5 26.28 28.5C26.28 28.5 26.913 27.1095 27.693 26.631C28.473 26.1525 30 26.22 30 26.22C30 26.22 28.6095 25.587 28.131 24.807C27.6525 24.027 27.72 22.5 27.72 22.5Z" stroke="#1779FA" stroke-width="1.5" stroke-linejoin="round"/>
</svg>
