<svg width="24" height="24" viewBox="0 0 24 24" fill="none" xmlns="http://www.w3.org/2000/svg">
<path opacity="0.25" d="M6 23H2C1.73478 23 1.48043 22.8946 1.29289 22.7071C1.10536 22.5196 1 22.2652 1 22V14C1 13.7348 1.10536 13.4804 1.29289 13.2929C1.48043 13.1054 1.73478 13 2 13H6C6.26522 13 6.51957 13.1054 6.70711 13.2929C6.89464 13.4804 7 13.7348 7 14V22C7 22.2652 6.89464 22.5196 6.70711 22.7071C6.51957 22.8946 6.26522 23 6 23Z" fill="white"/>
<path d="M9.00006 18H15.0001M10.0001 21H14.0001M9.00006 15C9.00106 13 8.50106 12.5 7.50006 11.5C6.49906 10.5 6.02506 9.487 6.00006 8C5.95306 4.95 8.00006 3 12.0001 3C16.0011 3 18.0491 4.95 18.0001 8C17.9771 9.487 17.5001 10.5 16.5001 11.5C15.5011 12.5 15.0011 13 15.0001 15" stroke="white" stroke-width="1.5" stroke-linecap="round" stroke-linejoin="round"/>
<path d="M14 23H10C9.73478 23 9.48043 22.8946 9.29289 22.7071C9.10536 22.5196 9 22.2652 9 22V2C9 1.73478 9.10536 1.48043 9.29289 1.29289C9.48043 1.10536 9.73478 1 10 1H14C14.2652 1 14.5196 1.10536 14.7071 1.29289C14.8946 1.48043 15 1.73478 15 2V22C15 22.2652 14.8946 22.5196 14.7071 22.7071C14.5196 22.8946 14.2652 23 14 23Z" fill="white"/>
<path opacity="0.5" d="M22 23H18C17.7348 23 17.4804 22.8946 17.2929 22.7071C17.1054 22.5196 17 22.2652 17 22V10C17 9.73478 17.1054 9.48043 17.2929 9.29289C17.4804 9.10536 17.7348 9 18 9H22C22.2652 9 22.5196 9.10536 22.7071 9.29289C22.8946 9.48043 23 9.73478 23 10V22C23 22.2652 22.8946 22.5196 22.7071 22.7071C22.5196 22.8946 22.2652 23 22 23Z" fill="white"/>
</svg>
