<svg width="136" height="26" viewBox="0 0 136 26" fill="none" xmlns="http://www.w3.org/2000/svg">
<path d="M14.304 3.832C14.304 3.02133 14.5813 2.41333 15.136 2.008C15.712 1.58133 16.3627 1.368 17.088 1.368C17.792 1.368 18.4213 1.58133 18.976 2.008C19.552 2.41333 19.84 3.02133 19.84 3.832V18.2C19.84 19.5867 19.584 20.76 19.072 21.72C18.5813 22.68 17.8987 23.4587 17.024 24.056C16.1707 24.6747 15.1573 25.112 13.984 25.368C12.8107 25.6453 11.552 25.784 10.208 25.784C8.75733 25.784 7.424 25.624 6.208 25.304C4.992 25.0053 3.94667 24.568 3.072 23.992C2.19733 23.416 1.51467 22.7227 1.024 21.912C0.533333 21.1013 0.288 20.2053 0.288 19.224C0.288 18.392 0.522667 17.8373 0.992 17.56C1.46133 17.2613 2.176 17.112 3.136 17.112C3.81867 17.112 4.42667 17.2187 4.96 17.432C5.49333 17.6453 5.78133 18.0613 5.824 18.68C5.84533 19.1067 5.94133 19.512 6.112 19.896C6.28267 20.2587 6.528 20.5893 6.848 20.888C7.18933 21.1653 7.616 21.3893 8.128 21.56C8.64 21.7307 9.26933 21.816 10.016 21.816C11.3813 21.816 12.4373 21.528 13.184 20.952C13.9307 20.376 14.304 19.4587 14.304 18.2V3.832ZM30.3698 9.464C31.8844 9.464 33.3031 9.74133 34.6258 10.296C35.9484 10.8507 37.0258 11.6293 37.8578 12.632C38.7111 13.6347 39.1911 14.7867 39.2978 16.088C39.3404 16.728 39.3618 17.1973 39.3618 17.496C39.3618 17.8587 39.3404 18.424 39.2978 19.192C39.2124 20.4933 38.7644 21.6453 37.9538 22.648C37.1431 23.6507 36.0658 24.4293 34.7218 24.984C33.3991 25.5387 31.9484 25.816 30.3698 25.816C28.8124 25.816 27.3724 25.528 26.0498 24.952C24.7484 24.3973 23.6818 23.6187 22.8498 22.616C22.0391 21.6133 21.5804 20.472 21.4738 19.192C21.4524 18.8293 21.4418 18.3067 21.4418 17.624C21.4418 16.9413 21.4524 16.4293 21.4738 16.088C21.5804 14.7653 22.0284 13.6027 22.8178 12.6C23.6284 11.5973 24.6844 10.8293 25.9858 10.296C27.3084 9.74133 28.7698 9.464 30.3698 9.464ZM26.8498 19.224C26.8498 20.0773 27.1804 20.76 27.8418 21.272C28.5031 21.7627 29.3458 22.008 30.3698 22.008C31.3511 22.008 32.1618 21.7627 32.8018 21.272C33.4418 20.7813 33.8151 20.0987 33.9218 19.224C33.9644 18.9253 33.9858 18.4667 33.9858 17.848C33.9858 17.4 33.9644 16.792 33.9218 16.024C33.8578 15.1493 33.5058 14.488 32.8658 14.04C32.2471 13.5707 31.4151 13.336 30.3698 13.336C29.4311 13.336 28.6311 13.5813 27.9698 14.072C27.3298 14.5413 26.9564 15.192 26.8498 16.024C26.7858 16.5573 26.7538 17.1013 26.7538 17.656C26.7538 18.1893 26.7858 18.712 26.8498 19.224ZM49.1045 9.464C50.7045 9.464 52.1552 9.72 53.4565 10.232C54.7792 10.744 55.8352 11.5013 56.6245 12.504C57.4138 13.5067 57.8405 14.712 57.9045 16.12V17.208V19.16C57.9045 21.2507 57.1472 22.8827 55.6325 24.056C54.1178 25.2293 52.0378 25.816 49.3925 25.816C48.6032 25.816 47.7925 25.688 46.9605 25.432C46.1498 25.176 45.5952 24.8773 45.2965 24.536C45.0405 24.8987 44.7312 25.1653 44.3685 25.336C44.0058 25.528 43.4832 25.624 42.8005 25.624C42.0112 25.624 41.3818 25.432 40.9125 25.048C40.4432 24.6853 40.2085 24.1627 40.2085 23.48V3.288C40.2085 2.52 40.4645 1.944 40.9765 1.56C41.5098 1.15467 42.1498 0.952 42.8965 0.952C43.6645 0.952 44.3045 1.15467 44.8165 1.56C45.3285 1.944 45.5845 2.52 45.5845 3.288V10.136C46.6512 9.688 47.8245 9.464 49.1045 9.464ZM45.6485 19.224C45.8192 21.08 46.9712 22.008 49.1045 22.008C50.0432 22.008 50.8112 21.7627 51.4085 21.272C52.0272 20.7813 52.3792 20.0987 52.4645 19.224C52.5285 18.712 52.5605 18.2 52.5605 17.688C52.5605 17.112 52.5285 16.5253 52.4645 15.928C52.3792 15.0747 52.0378 14.4347 51.4405 14.008C50.8645 13.56 50.0858 13.336 49.1045 13.336C48.1445 13.336 47.3445 13.5813 46.7045 14.072C46.0858 14.5413 45.7338 15.192 45.6485 16.024C45.5845 16.4933 45.5525 16.984 45.5525 17.496C45.5525 18.0293 45.5845 18.6053 45.6485 19.224ZM59.211 12.024C59.211 11.256 59.4777 10.6693 60.011 10.264C60.5443 9.85867 61.195 9.656 61.963 9.656C62.5603 9.656 63.051 9.784 63.435 10.04C63.8403 10.296 64.1177 10.616 64.267 11C64.7363 10.424 65.3017 10.0293 65.963 9.816C66.6243 9.58133 67.4137 9.464 68.331 9.464C70.827 9.464 72.7577 10.1893 74.123 11.64C75.339 10.1893 77.131 9.464 79.499 9.464C81.931 9.464 83.8937 10.0507 85.387 11.224C86.8803 12.3973 87.627 14.04 87.627 16.152V23.288C87.627 24.056 87.435 24.632 87.051 25.016C86.667 25.4213 85.9737 25.624 84.971 25.624C84.139 25.624 83.467 25.4213 82.955 25.016C82.4643 24.632 82.219 24.0773 82.219 23.352V16.088C82.219 15.2347 81.9523 14.5627 81.419 14.072C80.8857 13.5813 80.1603 13.336 79.243 13.336C78.283 13.336 77.5257 13.592 76.971 14.104C76.4377 14.616 76.171 15.3093 76.171 16.184V23.448C76.171 24.1947 75.9577 24.7387 75.531 25.08C75.1043 25.4427 74.3897 25.624 73.387 25.624C72.5337 25.624 71.8723 25.432 71.403 25.048C70.955 24.6853 70.731 24.1627 70.731 23.48V16.088C70.731 15.2347 70.4643 14.5627 69.931 14.072C69.3977 13.5813 68.683 13.336 67.787 13.336C65.7177 13.336 64.683 14.3813 64.683 16.472V22.904C64.683 23.8213 64.459 24.504 64.011 24.952C63.5843 25.4 62.8697 25.624 61.867 25.624C61.0563 25.624 60.4057 25.432 59.915 25.048C59.4457 24.6853 59.211 24.1627 59.211 23.48V12.024ZM99.7765 24.76C98.6032 25.464 96.9498 25.816 94.8165 25.816C92.4272 25.816 90.6672 25.368 89.5365 24.472C88.4272 23.5973 87.8512 22.5093 87.8085 21.208C87.6805 19.352 88.3632 17.9653 89.8565 17.048C91.3712 16.1093 93.6218 15.64 96.6085 15.64H99.2965C99.2538 14.9573 98.8912 14.3707 98.2085 13.88C97.5472 13.368 96.6405 13.112 95.4885 13.112C94.2085 13.112 93.1098 13.304 92.1925 13.688C91.6592 13.9013 91.1898 14.008 90.7845 14.008C90.0805 14.008 89.5792 13.688 89.2805 13.048C89.1525 12.728 89.0885 12.4293 89.0885 12.152C89.0885 11.4267 89.4618 10.8827 90.2085 10.52C90.8698 10.1787 91.6912 9.912 92.6725 9.72C93.6752 9.50667 94.6565 9.4 95.6165 9.4C97.6432 9.4 99.3392 9.70933 100.705 10.328C102.07 10.9253 103.073 11.7253 103.713 12.728C104.374 13.7093 104.705 14.7973 104.705 15.992V23.448C104.705 24.1307 104.47 24.6533 104.001 25.016C103.531 25.4 102.891 25.592 102.081 25.592C100.971 25.592 100.203 25.3147 99.7765 24.76ZM93.1525 20.696C93.1525 21.1653 93.3445 21.5387 93.7285 21.816C94.1125 22.0933 94.6458 22.232 95.3285 22.232C96.3738 22.232 97.3018 21.9867 98.1125 21.496C98.9232 21.0053 99.3285 20.4187 99.3285 19.736V19.096H96.5125C95.2325 19.096 94.3472 19.224 93.8565 19.48C93.3872 19.736 93.1525 20.1413 93.1525 20.696ZM117.235 9.464C118.707 9.464 119.443 10.136 119.443 11.48C119.443 12.7173 118.707 13.336 117.235 13.336H114.323V23.192C114.323 23.9813 114.057 24.5787 113.523 24.984C112.99 25.4107 112.339 25.624 111.571 25.624C110.803 25.624 110.153 25.4107 109.619 24.984C109.107 24.5787 108.851 23.9813 108.851 23.192V13.336H105.651C104.862 13.336 104.297 13.1547 103.955 12.792C103.614 12.4293 103.443 11.9707 103.443 11.416C103.443 10.1147 104.179 9.464 105.651 9.464H108.851V4.12C108.851 3.33067 109.107 2.73333 109.619 2.328C110.153 1.92267 110.803 1.72 111.571 1.72C112.339 1.72 112.99 1.92267 113.523 2.328C114.057 2.73333 114.323 3.33067 114.323 4.12V9.464H117.235ZM122.893 19.32C122.915 20.2373 123.299 20.952 124.045 21.464C124.814 21.9547 125.87 22.2 127.214 22.2C127.854 22.2 128.462 22.1253 129.038 21.976C129.635 21.8267 130.147 21.6773 130.573 21.528C131.022 21.3573 131.32 21.2507 131.47 21.208C132.024 21.0373 132.451 20.952 132.75 20.952C133.432 20.952 133.944 21.2293 134.285 21.784C134.499 22.1467 134.606 22.488 134.606 22.808C134.606 23.4267 134.296 23.9173 133.677 24.28C133.016 24.7067 132.099 25.0693 130.925 25.368C129.752 25.6667 128.472 25.816 127.085 25.816C125.208 25.816 123.565 25.5387 122.157 24.984C120.749 24.4293 119.64 23.6507 118.829 22.648C118.04 21.6453 117.603 20.4933 117.517 19.192C117.496 18.808 117.485 18.264 117.485 17.56C117.485 16.8347 117.496 16.2907 117.517 15.928C117.539 14.776 117.933 13.6987 118.701 12.696C119.491 11.6933 120.557 10.8933 121.901 10.296C123.267 9.69867 124.803 9.4 126.509 9.4C128.067 9.4 129.507 9.688 130.83 10.264C132.152 10.8187 133.197 11.5973 133.965 12.6C134.755 13.5813 135.149 14.68 135.149 15.896C135.149 17.24 134.765 18.1467 133.997 18.616C133.23 19.0853 132.195 19.32 130.894 19.32H122.893ZM129.069 15.896C129.454 15.896 129.709 15.8747 129.837 15.832C129.965 15.7893 130.03 15.672 130.03 15.48C130.03 14.7973 129.688 14.232 129.005 13.784C128.323 13.3147 127.48 13.08 126.477 13.08C125.475 13.08 124.622 13.2933 123.917 13.72C123.235 14.1467 122.893 14.7013 122.893 15.384V15.896H129.069Z" fill="#1779FA"/>
</svg>
