<svg width="20" height="20" viewBox="0 0 20 20" fill="none" xmlns="http://www.w3.org/2000/svg">
<path d="M17.1839 5.80469L14.2189 2.83769C12.1919 0.807687 11.1789 -0.205313 10.0899 0.0346874C9.00088 0.274687 8.50888 1.62169 7.52188 4.31469L6.85388 6.13769C6.59088 6.85569 6.45888 7.21469 6.22188 7.49269C6.11593 7.61768 5.99502 7.72919 5.86188 7.82469C5.56588 8.03769 5.19788 8.13869 4.46188 8.34169C2.80188 8.79969 1.97088 9.02869 1.65788 9.57169C1.52257 9.80672 1.45217 10.0735 1.45388 10.3447C1.45788 10.9717 2.06688 11.5807 3.28388 12.7997L4.69988 14.2157L0.223877 18.6957C0.0874832 18.8403 0.0128088 19.0323 0.0157063 19.2311C0.0186037 19.4298 0.0988447 19.6196 0.239396 19.7602C0.379946 19.9007 0.569741 19.981 0.768488 19.9839C0.967236 19.9868 1.15929 19.9121 1.30388 19.7757L5.77888 15.2957L7.24488 16.7637C8.47088 17.9897 9.08388 18.6037 9.71488 18.6037C9.97988 18.6037 10.2409 18.5357 10.4719 18.4037C11.0199 18.0907 11.2499 17.2547 11.7109 15.5817C11.9129 14.8467 12.0139 14.4797 12.2259 14.1827C12.3192 14.0534 12.4265 13.936 12.5479 13.8307C12.8229 13.5927 13.1799 13.4587 13.8929 13.1907L15.7369 12.4977C18.4009 11.4977 19.7329 10.9967 19.9669 9.91169C20.2019 8.82569 19.1969 7.81869 17.1839 5.80469Z" fill="#1779FA"/>
</svg>
