<svg width="16" height="16" viewBox="0 0 16 16" fill="none" xmlns="http://www.w3.org/2000/svg">
<path d="M8 13.0959C7.09933 12.4619 6.05666 12.0579 4.96333 11.9219C4.18789 11.7643 3.39787 11.6899 2.60666 11.6999C2.50542 11.7007 2.40501 11.6816 2.31122 11.6434C2.21744 11.6053 2.13213 11.549 2.06023 11.4777C1.98833 11.4064 1.93126 11.3216 1.89232 11.2281C1.85337 11.1347 1.83332 11.0344 1.83333 10.9332L1.84733 3.6712C1.8469 3.47635 1.92068 3.28864 2.05368 3.14624C2.18667 3.00383 2.3689 2.91741 2.56333 2.90453C3.36876 2.88852 4.17353 2.9605 4.96333 3.1192C6.05548 3.2601 7.09733 3.66312 8 4.29386M8 13.0959V4.29386M8 13.0959C8.90066 12.4619 9.94333 12.0579 11.0367 11.9219C11.8121 11.7643 12.6021 11.6899 13.3933 11.6999C13.4946 11.7007 13.595 11.6816 13.6888 11.6434C13.7826 11.6053 13.8679 11.549 13.9398 11.4777C14.0117 11.4064 14.0687 11.3216 14.1077 11.2281C14.1466 11.1347 14.1667 11.0344 14.1667 10.9332L14.152 3.6712C14.1524 3.47645 14.0787 3.28884 13.9459 3.14645C13.813 3.00406 13.631 2.91757 13.4367 2.90453C12.6312 2.88852 11.8265 2.9605 11.0367 3.1192C9.94451 3.2601 8.90266 3.66312 8 4.29386" stroke="#1779FA" stroke-linecap="round" stroke-linejoin="round"/>
</svg>
