<svg width="16" height="16" viewBox="0 0 16 16" fill="none" xmlns="http://www.w3.org/2000/svg">
<path d="M12.6047 4.29337L7.50133 9.39671C7.65288 9.61404 7.78066 9.84693 7.88466 10.0954L9.15799 13.1614L12.6047 4.29337ZM6.60333 8.4987L11.7073 3.3947L2.83866 6.84137L5.90466 8.11537C6.15078 8.21739 6.38506 8.34592 6.60333 8.4987ZM14.3487 3.25737L10.3307 13.5947C10.0773 14.248 9.34599 14.5834 8.69799 14.344C8.54013 14.2857 8.39603 14.1954 8.27476 14.0787C8.15349 13.962 8.05767 13.8215 7.99333 13.666L6.71999 10.6C6.47236 10.0025 5.99757 9.52768 5.39999 9.28004L2.33333 8.00671C1.69733 7.74204 1.40666 7.0067 1.68533 6.3627C1.75366 6.20535 1.85245 6.06307 1.97603 5.94407C2.0996 5.82508 2.2455 5.73172 2.40533 5.66937L12.7427 1.65004C12.9673 1.55952 13.2136 1.53706 13.4508 1.58544C13.6881 1.63383 13.906 1.75093 14.0772 1.92217C14.2484 2.09341 14.3655 2.31123 14.4139 2.54852C14.4623 2.78581 14.4398 3.03209 14.3493 3.2567L14.3487 3.25737Z" fill="#1779FA"/>
</svg>
