<svg width="20" height="20" viewBox="0 0 20 20" fill="none" xmlns="http://www.w3.org/2000/svg">
<path d="M5.38253 13.5834C5.16864 13.4628 4.99864 13.2989 4.87253 13.0917C4.74642 12.8839 4.68336 12.6511 4.68336 12.3934V9.16252L3.3567 8.42668C3.23559 8.35446 3.14559 8.26891 3.0867 8.17002C3.02781 8.07113 2.99892 7.96168 3.00003 7.84169C3.00114 7.72168 3.03059 7.61224 3.08836 7.51335C3.14614 7.41446 3.23586 7.32891 3.35753 7.25669L9.04086 4.15668C9.14198 4.10057 9.24614 4.06057 9.35336 4.03668C9.46059 4.0128 9.57059 4.00057 9.68336 4.00002C9.79614 3.99946 9.90642 4.01168 10.0142 4.03668C10.122 4.06168 10.2264 4.10141 10.3275 4.15585L16.7617 7.64502C16.8795 7.71446 16.9684 7.80141 17.0284 7.90585C17.0889 8.01085 17.1192 8.12418 17.1192 8.24585V12.7459C17.1192 12.8636 17.0792 12.9625 16.9992 13.0425C16.9192 13.1225 16.8203 13.1625 16.7025 13.1625C16.5848 13.1625 16.4856 13.1225 16.405 13.0425C16.3245 12.9625 16.2848 12.8636 16.2859 12.7459V8.31002L14.6834 9.16252V12.3934C14.6834 12.6511 14.6203 12.8839 14.4942 13.0917C14.3681 13.2995 14.1984 13.4634 13.985 13.5834L10.3309 15.5617C10.2275 15.62 10.122 15.6614 10.0142 15.6859C9.90642 15.7103 9.79614 15.7222 9.68336 15.7217C9.57059 15.7211 9.46031 15.7092 9.35253 15.6859C9.24475 15.6625 9.1392 15.6209 9.03586 15.5609L5.38253 13.5834ZM9.49086 10.8292C9.56586 10.8714 9.63253 10.8925 9.69086 10.8925C9.74975 10.8925 9.8167 10.8714 9.8917 10.8292L15.375 7.84169L9.8917 4.87085C9.81725 4.82807 9.75059 4.80668 9.6917 4.80668C9.63281 4.80668 9.56614 4.82807 9.4917 4.87085L3.9917 7.84169L9.49086 10.8292ZM9.47503 14.8559C9.55003 14.8986 9.61947 14.92 9.68336 14.92C9.74725 14.92 9.8167 14.8986 9.8917 14.8559L13.61 12.8467C13.6956 12.7934 13.7567 12.732 13.7934 12.6625C13.83 12.5931 13.8489 12.5047 13.85 12.3975V9.62085L10.3359 11.5392C10.232 11.5975 10.1264 11.6389 10.0192 11.6634C9.91309 11.6872 9.80114 11.6992 9.68336 11.6992C9.56559 11.6992 9.45336 11.6872 9.3467 11.6634C9.24003 11.6395 9.13475 11.5978 9.03086 11.5384L5.5167 9.62168V12.3984C5.5167 12.4839 5.53531 12.567 5.57253 12.6475C5.60975 12.7275 5.67114 12.7942 5.7567 12.8475L9.47503 14.8559Z" fill="#1779FA"/>
</svg>
