<svg width="32" height="32" viewBox="0 0 32 32" fill="none" xmlns="http://www.w3.org/2000/svg">
<path d="M12.1426 7.26335C12.9399 4.93002 16.1639 4.85935 17.1092 7.05135L17.1892 7.26468L18.2652 10.4113C18.5118 11.133 18.9103 11.7934 19.4338 12.3479C19.9573 12.9025 20.5936 13.3383 21.2999 13.626L21.5892 13.734L24.7359 14.8087C27.0692 15.606 27.1399 18.83 24.9492 19.7753L24.7359 19.8554L21.5892 20.9314C20.8673 21.1778 20.2067 21.5762 19.6519 22.0997C19.0971 22.6232 18.6611 23.2596 18.3732 23.966L18.2652 24.254L17.1906 27.402C16.3932 29.7353 13.1692 29.806 12.2252 27.6153L12.1426 27.402L11.0679 24.2553C10.8215 23.5335 10.4231 22.8728 9.89955 22.318C9.37604 21.7633 8.73962 21.3272 8.03323 21.0393L7.74523 20.9314L4.59856 19.8567C2.26389 19.0593 2.19323 15.8353 4.38523 14.8913L4.59856 14.8087L7.74523 13.734C8.46687 13.4874 9.12724 13.0889 9.68179 12.5654C10.2363 12.0419 10.6722 11.4056 10.9599 10.6993L11.0679 10.4113L12.1426 7.26335ZM25.3332 2.66602C25.5827 2.66602 25.8271 2.73599 26.0388 2.86798C26.2504 2.99997 26.4208 3.18869 26.5306 3.41268L26.5946 3.56868L27.0612 4.93668L28.4306 5.40335C28.6805 5.48828 28.8997 5.6455 29.0602 5.8551C29.2207 6.0647 29.3154 6.31724 29.3323 6.58071C29.3491 6.84418 29.2874 7.10672 29.1549 7.33507C29.0223 7.56341 28.825 7.74727 28.5879 7.86335L28.4306 7.92735L27.0626 8.39402L26.5959 9.76335C26.5108 10.0133 26.3535 10.2323 26.1438 10.3927C25.9341 10.5531 25.6815 10.6476 25.4181 10.6643C25.1546 10.681 24.8921 10.6191 24.6639 10.4865C24.4356 10.3539 24.2519 10.1565 24.1359 9.91935L24.0719 9.76335L23.6052 8.39535L22.2359 7.92868C21.9859 7.84376 21.7668 7.68653 21.6063 7.47693C21.4457 7.26733 21.351 7.01479 21.3342 6.75132C21.3173 6.48785 21.3791 6.22531 21.5116 5.99697C21.6441 5.76862 21.8414 5.58476 22.0786 5.46868L22.2359 5.40468L23.6039 4.93802L24.0706 3.56868C24.1605 3.30525 24.3306 3.07656 24.557 2.91468C24.7835 2.7528 25.0549 2.66585 25.3332 2.66602Z" fill="#1779FA"/>
</svg>
