<svg width="20" height="20" viewBox="0 0 20 20" fill="none" xmlns="http://www.w3.org/2000/svg">
<path d="M4.16667 10.8327C4.16667 10.3907 4.34227 9.96673 4.65483 9.65417C4.96739 9.34161 5.39131 9.16602 5.83334 9.16602H14.1667C14.6087 9.16602 15.0326 9.34161 15.3452 9.65417C15.6577 9.96673 15.8333 10.3907 15.8333 10.8327V15.8327C15.8333 16.2747 15.6577 16.6986 15.3452 17.0112C15.0326 17.3238 14.6087 17.4993 14.1667 17.4993H5.83334C5.39131 17.4993 4.96739 17.3238 4.65483 17.0112C4.34227 16.6986 4.16667 16.2747 4.16667 15.8327V10.8327Z" stroke="#10B981" stroke-width="1.33333" stroke-linecap="round" stroke-linejoin="round"/>
<path d="M6.66667 9.16667V5.83333C6.66667 4.94928 7.01786 4.10143 7.64298 3.47631C8.2681 2.85119 9.11595 2.5 10 2.5C10.8841 2.5 11.7319 2.85119 12.357 3.47631C12.9821 4.10143 13.3333 4.94928 13.3333 5.83333V9.16667" stroke="#10B981" stroke-width="1.33333" stroke-linecap="round" stroke-linejoin="round"/>
<path d="M9.16667 13.3333C9.16667 13.5543 9.25447 13.7663 9.41075 13.9226C9.56703 14.0789 9.77899 14.1667 10 14.1667C10.221 14.1667 10.433 13.9226 10.5893 13.7441C10.7455 13.5878 10.8333 13.3758 10.8333 13.1548C10.8333 12.9338 10.7455 12.7218 10.5893 12.5655C10.433 12.4092 10.221 12.3214 10 12.3214C9.77899 12.3214 9.56703 12.4092 9.41075 12.5655C9.25447 12.7218 9.16667 12.9338 9.16667 13.1548Z" stroke="#10B981" stroke-width="1.33333" stroke-linecap="round" stroke-linejoin="round"/>
</svg>
